<?xml version="1.0" encoding="UTF-8" standalone="no"?>
<!DOCTYPE svg PUBLIC "-//W3C//DTD SVG 1.1//EN"
 "http://www.w3.org/Graphics/SVG/1.1/DTD/svg11.dtd">
<!-- Generated by graphviz version 12.2.1 (20250203.1708)
 -->
<!-- Title: G Pages: 1 -->
<svg width="815pt" height="259pt"
 viewBox="0.00 0.00 815.00 259.00" xmlns="http://www.w3.org/2000/svg" xmlns:xlink="http://www.w3.org/1999/xlink">
<g id="graph0" class="graph" transform="scale(1 1) rotate(0) translate(4 255)">
<title>G</title>
<polygon fill="white" stroke="none" points="-4,4 -4,-255 811,-255 811,4 -4,4"/>
<g id="clust1" class="cluster">
<title>cluster_plain</title>
<polygon fill="none" stroke="#004d40" stroke-dasharray="5,2" points="8,-16 8,-143 184,-143 184,-16 8,-16"/>
<text text-anchor="middle" x="96" y="-129.5" font-family="Jost" font-size="10.00" fill="#004d40">Plaintext (local only)</text>
</g>
<g id="clust2" class="cluster">
<title>cluster_vault</title>
<polygon fill="#e8f5e9" stroke="#004d40" points="668,-8 668,-243 807,-243 807,-8 668,-8"/>
<text text-anchor="middle" x="737.5" y="-229.5" font-family="Jost" font-size="10.00" fill="#004d40">.vault/ (committed to git)</text>
</g>
<!-- secret1 -->
<g id="node1" class="node">
<title>secret1</title>
<polygon fill="white" stroke="black" points="164.38,-114 27.62,-114 27.62,-78 164.38,-78 164.38,-114"/>
<text text-anchor="middle" x="96" y="-91.72" font-family="Jost" font-size="12.00">~/.secret/api_key.txt</text>
</g>
<!-- nimvault -->
<g id="node3" class="node">
<title>nimvault</title>
<polygon fill="#f1db4b" stroke="black" points="380.25,-79.25 266,-79.25 266,-42.75 380.25,-42.75 380.25,-79.25"/>
<text text-anchor="middle" x="323.12" y="-63.85" font-family="Jost" font-size="12.00">nimvault CLI</text>
<text text-anchor="middle" x="323.12" y="-49.6" font-family="Jost" font-size="12.00">(cligen dispatch)</text>
</g>
<!-- secret1&#45;&gt;nimvault -->
<g id="edge1" class="edge">
<title>secret1&#45;&gt;nimvault</title>
<path fill="none" stroke="#004d40" d="M164.76,-106.21C191.1,-108.12 221.3,-107.74 248,-101 260.94,-97.73 274.07,-91.71 285.62,-85.31"/>
<polygon fill="#004d40" stroke="#004d40" points="287.13,-88.48 294.01,-80.42 283.6,-82.44 287.13,-88.48"/>
<text text-anchor="middle" x="221" y="-110.24" font-family="Jost" font-size="11.00">add / seal</text>
</g>
<!-- secret2 -->
<g id="node2" class="node">
<title>secret2</title>
<polygon fill="white" stroke="black" points="176,-60 16,-60 16,-24 176,-24 176,-60"/>
<text text-anchor="middle" x="96" y="-37.73" font-family="Jost" font-size="12.00">~/.config/app/creds.json</text>
</g>
<!-- secret2&#45;&gt;nimvault -->
<g id="edge2" class="edge">
<title>secret2&#45;&gt;nimvault</title>
<path fill="none" stroke="#004d40" d="M139.18,-23.51C169.76,-12.65 211.9,-2.93 248,-13.5 263.43,-18.02 278.69,-26.84 291.32,-35.67"/>
<polygon fill="#004d40" stroke="#004d40" points="289.07,-38.36 299.21,-41.46 293.22,-32.72 289.07,-38.36"/>
<text text-anchor="middle" x="221" y="-16.55" font-family="Jost" font-size="11.00">add / seal</text>
</g>
<!-- nimvault&#45;&gt;secret1 -->
<g id="edge8" class="edge">
<title>nimvault&#45;&gt;secret1</title>
<path fill="none" stroke="#004d40" stroke-dasharray="5,2" d="M265.78,-69.76C238.63,-73.98 205.62,-79.11 176.01,-83.72"/>
<polygon fill="#004d40" stroke="#004d40" points="175.69,-80.22 166.35,-85.22 176.76,-87.14 175.69,-80.22"/>
<text text-anchor="middle" x="221" y="-83.65" font-family="Jost" font-size="11.00">unseal</text>
</g>
<!-- nimvault&#45;&gt;secret2 -->
<g id="edge9" class="edge">
<title>nimvault&#45;&gt;secret2</title>
<path fill="none" stroke="#004d40" stroke-dasharray="5,2" d="M265.53,-52.48C259.62,-51.74 253.69,-51.06 248,-50.5 228.47,-48.57 207.47,-47.04 187.53,-45.85"/>
<polygon fill="#004d40" stroke="#004d40" points="187.94,-42.37 177.76,-45.29 187.54,-49.35 187.94,-42.37"/>
<text text-anchor="middle" x="221" y="-53.55" font-family="Jost" font-size="11.00">unseal</text>
</g>
<!-- gpg -->
<g id="node8" class="node">
<title>gpg</title>
<polygon fill="#ff655d" stroke="black" points="592,-139.25 471.75,-139.25 471.75,-102.75 592,-102.75 592,-139.25"/>
<text text-anchor="middle" x="531.88" y="-123.85" font-family="Jost" font-size="12.00" fill="white">GPG</text>
<text text-anchor="middle" x="531.88" y="-109.6" font-family="Jost" font-size="12.00" fill="white">(encrypt/decrypt)</text>
</g>
<!-- nimvault&#45;&gt;gpg -->
<g id="edge3" class="edge">
<title>nimvault&#45;&gt;gpg</title>
<path fill="none" stroke="#004d40" d="M380.62,-77.4C405.31,-84.56 434.52,-93.04 460.6,-100.61"/>
<polygon fill="#004d40" stroke="#004d40" points="459.53,-103.94 470.11,-103.36 461.48,-97.22 459.53,-103.94"/>
<text text-anchor="middle" x="426" y="-114.69" font-family="Jost" font-size="11.00">parallel</text>
<text text-anchor="middle" x="426" y="-101.19" font-family="Jost" font-size="11.00">processes</text>
</g>
<!-- manifest -->
<g id="node4" class="node">
<title>manifest</title>
<polygon fill="white" stroke="black" points="784.38,-160 689.62,-160 689.62,-124 784.38,-124 784.38,-160"/>
<text text-anchor="middle" x="737" y="-137.72" font-family="Jost" font-size="12.00">manifest.gpg</text>
</g>
<!-- blob1 -->
<g id="node5" class="node">
<title>blob1</title>
<polygon fill="white" stroke="black" points="787.75,-106 686.25,-106 686.25,-70 787.75,-70 787.75,-106"/>
<text text-anchor="middle" x="737" y="-83.72" font-family="Jost" font-size="12.00">a1b2c3d4.gpg</text>
</g>
<!-- blob2 -->
<g id="node6" class="node">
<title>blob2</title>
<polygon fill="white" stroke="black" points="786.25,-214 687.75,-214 687.75,-178 786.25,-178 786.25,-214"/>
<text text-anchor="middle" x="737" y="-191.72" font-family="Jost" font-size="12.00">fedcba98.gpg</text>
</g>
<!-- config -->
<g id="node7" class="node">
<title>config</title>
<polygon fill="white" stroke="black" points="775.38,-52.25 698.62,-52.25 698.62,-15.75 775.38,-15.75 775.38,-52.25"/>
<text text-anchor="middle" x="737" y="-36.85" font-family="Jost" font-size="12.00">config</text>
<text text-anchor="middle" x="737" y="-22.6" font-family="Jost" font-size="12.00">(recipient)</text>
</g>
<!-- config&#45;&gt;nimvault -->
<g id="edge7" class="edge">
<title>config&#45;&gt;nimvault</title>
<path fill="none" stroke="#004d40" stroke-dasharray="5,2" d="M698.31,-36.47C628.78,-41.03 479.47,-50.82 391.94,-56.55"/>
<polygon fill="#004d40" stroke="#004d40" points="391.79,-53.06 382.04,-57.2 392.25,-60.04 391.79,-53.06"/>
<text text-anchor="middle" x="531.88" y="-67.61" font-family="Jost" font-size="11.00">recipient</text>
<text text-anchor="middle" x="531.88" y="-54.11" font-family="Jost" font-size="11.00">resolution</text>
</g>
<!-- gpg&#45;&gt;manifest -->
<g id="edge6" class="edge">
<title>gpg&#45;&gt;manifest</title>
<path fill="none" stroke="#004d40" d="M592.45,-127.16C619.49,-129.95 651.35,-133.25 678.18,-136.02"/>
<polygon fill="#004d40" stroke="#004d40" points="677.53,-139.47 687.83,-137.02 678.25,-132.51 677.53,-139.47"/>
<text text-anchor="middle" x="634" y="-149.93" font-family="Jost" font-size="11.00">encrypt</text>
<text text-anchor="middle" x="634" y="-136.43" font-family="Jost" font-size="11.00">manifest</text>
</g>
<!-- gpg&#45;&gt;blob1 -->
<g id="edge4" class="edge">
<title>gpg&#45;&gt;blob1</title>
<path fill="none" stroke="#004d40" d="M592.45,-111.32C618.35,-107.11 648.67,-102.19 674.76,-97.95"/>
<polygon fill="#004d40" stroke="#004d40" points="675.23,-101.42 684.54,-96.36 674.11,-94.51 675.23,-101.42"/>
</g>
<!-- gpg&#45;&gt;blob2 -->
<g id="edge5" class="edge">
<title>gpg&#45;&gt;blob2</title>
<path fill="none" stroke="#004d40" d="M562.02,-139.62C576.09,-147.98 593.48,-157.43 610,-164 631.06,-172.38 655,-179.11 676.3,-184.2"/>
<polygon fill="#004d40" stroke="#004d40" points="675.5,-187.6 686.03,-186.44 677.07,-180.78 675.5,-187.6"/>
</g>
</g>
</svg>
