<?xml version="1.0" encoding="UTF-8" standalone="no"?>
<!DOCTYPE svg PUBLIC "-//W3C//DTD SVG 1.1//EN"
 "http://www.w3.org/Graphics/SVG/1.1/DTD/svg11.dtd">
<!-- Generated by graphviz version 12.2.1 (20250203.1708)
 -->
<!-- Title: G Pages: 1 -->
<svg width="773pt" height="45pt"
 viewBox="0.00 0.00 772.50 44.50" xmlns="http://www.w3.org/2000/svg" xmlns:xlink="http://www.w3.org/1999/xlink">
<g id="graph0" class="graph" transform="scale(1 1) rotate(0) translate(4 40.5)">
<title>G</title>
<polygon fill="white" stroke="none" points="-4,4 -4,-40.5 768.5,-40.5 768.5,4 -4,4"/>
<!-- apply -->
<g id="node1" class="node">
<title>apply</title>
<polygon fill="white" stroke="black" points="102.25,-36.25 0,-36.25 0,-0.25 102.25,-0.25 102.25,-36.25"/>
<text text-anchor="middle" x="51.12" y="-13.97" font-family="Jost" font-size="12.00">chezmoi apply</text>
</g>
<!-- runbefore -->
<g id="node2" class="node">
<title>runbefore</title>
<polygon fill="white" stroke="black" points="299,-36.5 181,-36.5 181,0 299,0 299,-36.5"/>
<text text-anchor="middle" x="240" y="-21.1" font-family="Jost" font-size="12.00">run_before script</text>
<text text-anchor="middle" x="240" y="-6.85" font-family="Jost" font-size="12.00">(template)</text>
</g>
<!-- apply&#45;&gt;runbefore -->
<g id="edge1" class="edge">
<title>apply&#45;&gt;runbefore</title>
<path fill="none" stroke="#004d40" d="M102.7,-18.25C123.22,-18.25 147.27,-18.25 169.41,-18.25"/>
<polygon fill="#004d40" stroke="#004d40" points="169.27,-21.75 179.27,-18.25 169.27,-14.75 169.27,-21.75"/>
<text text-anchor="middle" x="141.62" y="-21.3" font-family="Jost" font-size="11.00">triggers</text>
</g>
<!-- nimvault -->
<g id="node3" class="node">
<title>nimvault</title>
<polygon fill="#f1db4b" stroke="black" points="446.5,-36.25 336,-36.25 336,-0.25 446.5,-0.25 446.5,-36.25"/>
<text text-anchor="middle" x="391.25" y="-13.97" font-family="Jost" font-size="12.00">nimvault unseal</text>
</g>
<!-- runbefore&#45;&gt;nimvault -->
<g id="edge2" class="edge">
<title>runbefore&#45;&gt;nimvault</title>
<path fill="none" stroke="#004d40" d="M299.13,-18.25C307.46,-18.25 316.08,-18.25 324.54,-18.25"/>
<polygon fill="#004d40" stroke="#004d40" points="324.43,-21.75 334.42,-18.25 324.42,-14.75 324.43,-21.75"/>
</g>
<!-- gpg -->
<g id="node4" class="node">
<title>gpg</title>
<polygon fill="#ff655d" stroke="black" points="614,-36.25 523,-36.25 523,-0.25 614,-0.25 614,-36.25"/>
<text text-anchor="middle" x="568.5" y="-13.97" font-family="Jost" font-size="12.00" fill="white">GPG decrypt</text>
</g>
<!-- nimvault&#45;&gt;gpg -->
<g id="edge3" class="edge">
<title>nimvault&#45;&gt;gpg</title>
<path fill="none" stroke="#004d40" d="M446.74,-18.25C467.25,-18.25 490.59,-18.25 511.25,-18.25"/>
<polygon fill="#004d40" stroke="#004d40" points="511.23,-21.75 521.23,-18.25 511.23,-14.75 511.23,-21.75"/>
<text text-anchor="middle" x="484.75" y="-21.3" font-family="Jost" font-size="11.00">parallel</text>
</g>
<!-- files -->
<g id="node5" class="node">
<title>files</title>
<polygon fill="white" stroke="black" points="764.5,-36.5 651,-36.5 651,0 764.5,0 764.5,-36.5"/>
<text text-anchor="middle" x="707.75" y="-21.1" font-family="Jost" font-size="12.00">Secrets restored</text>
<text text-anchor="middle" x="707.75" y="-6.85" font-family="Jost" font-size="12.00">to ~/</text>
</g>
<!-- gpg&#45;&gt;files -->
<g id="edge4" class="edge">
<title>gpg&#45;&gt;files</title>
<path fill="none" stroke="#004d40" d="M614.44,-18.25C622.4,-18.25 630.83,-18.25 639.25,-18.25"/>
<polygon fill="#004d40" stroke="#004d40" points="639.15,-21.75 649.15,-18.25 639.15,-14.75 639.15,-21.75"/>
</g>
</g>
</svg>
