<?xml version="1.0" encoding="UTF-8" standalone="no"?>
<!DOCTYPE svg PUBLIC "-//W3C//DTD SVG 1.1//EN"
 "http://www.w3.org/Graphics/SVG/1.1/DTD/svg11.dtd">
<!-- Generated by graphviz version 12.2.1 (20250203.1708)
 -->
<!-- Title: G Pages: 1 -->
<svg width="741pt" height="187pt"
 viewBox="0.00 0.00 740.75 187.00" xmlns="http://www.w3.org/2000/svg" xmlns:xlink="http://www.w3.org/1999/xlink">
<g id="graph0" class="graph" transform="scale(1 1) rotate(0) translate(4 183)">
<title>G</title>
<polygon fill="white" stroke="none" points="-4,4 -4,-183 736.75,-183 736.75,4 -4,4"/>
<g id="clust1" class="cluster">
<title>cluster_once</title>
<polygon fill="none" stroke="#004d40" stroke-dasharray="5,2" points="8,-8 8,-90 395.38,-90 395.38,-8 8,-8"/>
<text text-anchor="middle" x="201.69" y="-76.5" font-family="Jost" font-size="10.00" fill="#004d40">One&#45;time setup</text>
</g>
<g id="clust2" class="cluster">
<title>cluster_new</title>
<polygon fill="none" stroke="#004d40" stroke-dasharray="5,2" points="22.25,-98 22.25,-171 593.25,-171 593.25,-98 22.25,-98"/>
<text text-anchor="middle" x="307.75" y="-157.5" font-family="Jost" font-size="10.00" fill="#004d40">New machine</text>
</g>
<!-- gpggen -->
<g id="node1" class="node">
<title>gpggen</title>
<polygon fill="white" stroke="black" points="142.25,-52.25 16,-52.25 16,-15.75 142.25,-15.75 142.25,-52.25"/>
<text text-anchor="middle" x="79.12" y="-36.85" font-family="Jost" font-size="12.00">Generate GPG key</text>
<text text-anchor="middle" x="79.12" y="-22.6" font-family="Jost" font-size="12.00">(or use existing)</text>
</g>
<!-- kbselect -->
<g id="node2" class="node">
<title>kbselect</title>
<polygon fill="#f1db4b" stroke="black" points="387.38,-52.25 256.62,-52.25 256.62,-15.75 387.38,-15.75 387.38,-52.25"/>
<text text-anchor="middle" x="322" y="-36.85" font-family="Jost" font-size="12.00">keybase pgp select</text>
<text text-anchor="middle" x="322" y="-22.6" font-family="Jost" font-size="12.00">&#45;&#45;import</text>
</g>
<!-- gpggen&#45;&gt;kbselect -->
<g id="edge1" class="edge">
<title>gpggen&#45;&gt;kbselect</title>
<path fill="none" stroke="#004d40" d="M142.47,-34C173.77,-34 211.95,-34 244.96,-34"/>
<polygon fill="#004d40" stroke="#004d40" points="244.88,-37.5 254.88,-34 244.88,-30.5 244.88,-37.5"/>
<text text-anchor="middle" x="195.12" y="-50.55" font-family="Jost" font-size="11.00">push to</text>
<text text-anchor="middle" x="195.12" y="-37.05" font-family="Jost" font-size="11.00">Keybase</text>
</g>
<!-- kblogin -->
<g id="node3" class="node">
<title>kblogin</title>
<polygon fill="white" stroke="black" points="128,-142 30.25,-142 30.25,-106 128,-106 128,-142"/>
<text text-anchor="middle" x="79.12" y="-119.72" font-family="Jost" font-size="12.00">keybase login</text>
</g>
<!-- kbexport -->
<g id="node4" class="node">
<title>kbexport</title>
<polygon fill="#f1db4b" stroke="black" points="396,-142.25 248,-142.25 248,-105.75 396,-105.75 396,-142.25"/>
<text text-anchor="middle" x="322" y="-126.85" font-family="Jost" font-size="12.00">keybase pgp export</text>
<text text-anchor="middle" x="322" y="-112.6" font-family="Jost" font-size="12.00">&#45;&#45;secret | gpg &#45;&#45;import</text>
</g>
<!-- kblogin&#45;&gt;kbexport -->
<g id="edge2" class="edge">
<title>kblogin&#45;&gt;kbexport</title>
<path fill="none" stroke="#004d40" d="M128.29,-124C159.27,-124 200.38,-124 236.66,-124"/>
<polygon fill="#004d40" stroke="#004d40" points="236.24,-127.5 246.24,-124 236.24,-120.5 236.24,-127.5"/>
<text text-anchor="middle" x="195.12" y="-127.05" font-family="Jost" font-size="11.00">authenticate</text>
</g>
<!-- gpgtrust -->
<g id="node5" class="node">
<title>gpgtrust</title>
<polygon fill="#ff655d" stroke="black" points="585.25,-142.25 479.25,-142.25 479.25,-105.75 585.25,-105.75 585.25,-142.25"/>
<text text-anchor="middle" x="532.25" y="-126.85" font-family="Jost" font-size="12.00" fill="white">gpg &#45;&#45;edit&#45;key</text>
<text text-anchor="middle" x="532.25" y="-112.6" font-family="Jost" font-size="12.00" fill="white">trust (ultimate)</text>
</g>
<!-- kbexport&#45;&gt;gpgtrust -->
<g id="edge3" class="edge">
<title>kbexport&#45;&gt;gpgtrust</title>
<path fill="none" stroke="#004d40" d="M396.42,-124C419.56,-124 444.91,-124 467.33,-124"/>
<polygon fill="#004d40" stroke="#004d40" points="467.25,-127.5 477.25,-124 467.24,-120.5 467.25,-127.5"/>
<text text-anchor="middle" x="437.62" y="-127.05" font-family="Jost" font-size="11.00">set trust</text>
</g>
<!-- nimvault -->
<g id="node6" class="node">
<title>nimvault</title>
<polygon fill="#f1db4b" stroke="black" points="732.75,-142.25 622.25,-142.25 622.25,-105.75 732.75,-105.75 732.75,-142.25"/>
<text text-anchor="middle" x="677.5" y="-126.85" font-family="Jost" font-size="12.00">nimvault unseal</text>
<text text-anchor="middle" x="677.5" y="-112.6" font-family="Jost" font-size="12.00">(just works)</text>
</g>
<!-- gpgtrust&#45;&gt;nimvault -->
<g id="edge4" class="edge">
<title>gpgtrust&#45;&gt;nimvault</title>
<path fill="none" stroke="#004d40" d="M585.37,-124C593.51,-124 602.02,-124 610.42,-124"/>
<polygon fill="#004d40" stroke="#004d40" points="610.25,-127.5 620.25,-124 610.25,-120.5 610.25,-127.5"/>
</g>
</g>
</svg>
