<?xml version="1.0" encoding="UTF-8" standalone="no"?>
<!DOCTYPE svg PUBLIC "-//W3C//DTD SVG 1.1//EN"
 "http://www.w3.org/Graphics/SVG/1.1/DTD/svg11.dtd">
<!-- Generated by graphviz version 12.2.1 (20250203.1708)
 -->
<!-- Title: G Pages: 1 -->
<svg width="675pt" height="46pt"
 viewBox="0.00 0.00 675.25 45.71" xmlns="http://www.w3.org/2000/svg" xmlns:xlink="http://www.w3.org/1999/xlink">
<g id="graph0" class="graph" transform="scale(1 1) rotate(0) translate(4 41.71)">
<title>G</title>
<polygon fill="white" stroke="none" points="-4,4 -4,-41.71 671.25,-41.71 671.25,4 -4,4"/>
<!-- manifest_gpg -->
<g id="node1" class="node">
<title>manifest_gpg</title>
<polygon fill="white" stroke="black" points="131.5,-37.71 0,-37.71 0,-1.21 131.5,-1.21 131.5,-37.71"/>
<text text-anchor="middle" x="65.75" y="-22.31" font-family="Jost" font-size="12.00">manifest.gpg</text>
<text text-anchor="middle" x="65.75" y="-8.06" font-family="Jost" font-size="12.00">(encrypted on disk)</text>
</g>
<!-- gpg -->
<g id="node2" class="node">
<title>gpg</title>
<polygon fill="#ff655d" stroke="black" points="259.5,-37.46 168.5,-37.46 168.5,-1.46 259.5,-1.46 259.5,-37.46"/>
<text text-anchor="middle" x="214" y="-15.18" font-family="Jost" font-size="12.00" fill="white">GPG decrypt</text>
</g>
<!-- manifest_gpg&#45;&gt;gpg -->
<g id="edge1" class="edge">
<title>manifest_gpg&#45;&gt;gpg</title>
<path fill="none" stroke="#004d40" d="M131.75,-19.46C140.15,-19.46 148.69,-19.46 156.93,-19.46"/>
<polygon fill="#004d40" stroke="#004d40" points="156.82,-22.96 166.82,-19.46 156.82,-15.96 156.82,-22.96"/>
</g>
<!-- tsv -->
<g id="node3" class="node">
<title>tsv</title>
<polygon fill="white" stroke="black" points="447.25,-37.71 352.5,-37.71 352.5,-1.21 447.25,-1.21 447.25,-37.71"/>
<text text-anchor="middle" x="399.88" y="-22.31" font-family="Jost" font-size="12.00">Plaintext TSV</text>
<text text-anchor="middle" x="399.88" y="-8.06" font-family="Jost" font-size="12.00">(in memory)</text>
</g>
<!-- gpg&#45;&gt;tsv -->
<g id="edge2" class="edge">
<title>gpg&#45;&gt;tsv</title>
<path fill="none" stroke="#004d40" d="M259.72,-20.26C265.7,-20.34 271.75,-20.41 277.5,-20.46 302.83,-20.66 309.17,-20.66 334.5,-20.46 336.55,-20.44 338.63,-20.42 340.74,-20.4"/>
<polygon fill="#004d40" stroke="#004d40" points="340.64,-23.9 350.6,-20.29 340.56,-16.9 340.64,-23.9"/>
</g>
<!-- tsv&#45;&gt;gpg -->
<g id="edge5" class="edge">
<title>tsv&#45;&gt;gpg</title>
<path fill="none" stroke="#004d40" stroke-dasharray="5,2" d="M352.03,-6C346.17,-4.75 340.22,-3.68 334.5,-2.96 309.37,0.21 302.62,0.3 277.5,-2.96 275.33,-3.24 273.13,-3.57 270.91,-3.95"/>
<polygon fill="#004d40" stroke="#004d40" points="270.4,-0.49 261.27,-5.86 271.76,-7.35 270.4,-0.49"/>
<text text-anchor="middle" x="306" y="-6.01" font-family="Jost" font-size="11.00">re&#45;encrypt</text>
</g>
<!-- entries -->
<g id="node4" class="node">
<title>entries</title>
<polygon fill="white" stroke="black" points="667.25,-37.71 556.75,-37.71 556.75,-1.21 667.25,-1.21 667.25,-37.71"/>
<text text-anchor="middle" x="612" y="-22.31" font-family="Jost" font-size="12.00">seq[VaultEntry]</text>
<text text-anchor="middle" x="612" y="-8.06" font-family="Jost" font-size="12.00">id + path tuples</text>
</g>
<!-- tsv&#45;&gt;entries -->
<g id="edge3" class="edge">
<title>tsv&#45;&gt;entries</title>
<path fill="none" stroke="#004d40" d="M447.64,-20.27C453.57,-20.35 459.55,-20.41 465.25,-20.46 497.92,-20.71 506.08,-20.68 538.75,-20.46 540.82,-20.44 542.93,-20.43 545.06,-20.41"/>
<polygon fill="#004d40" stroke="#004d40" points="545.08,-23.91 555.05,-20.31 545.01,-16.91 545.08,-23.91"/>
</g>
<!-- entries&#45;&gt;tsv -->
<g id="edge4" class="edge">
<title>entries&#45;&gt;tsv</title>
<path fill="none" stroke="#004d40" stroke-dasharray="5,2" d="M556.39,-5.63C550.47,-4.54 544.5,-3.61 538.75,-2.96 506.29,0.7 497.66,1.13 465.25,-2.96 463.19,-3.22 461.11,-3.52 459.01,-3.86"/>
<polygon fill="#004d40" stroke="#004d40" points="458.38,-0.42 449.21,-5.72 459.69,-7.3 458.38,-0.42"/>
<text text-anchor="middle" x="502" y="-6.01" font-family="Jost" font-size="11.00">saveManifest</text>
</g>
</g>
</svg>
