<?xml version="1.0" encoding="UTF-8" standalone="no"?>
<!DOCTYPE svg PUBLIC "-//W3C//DTD SVG 1.1//EN"
 "http://www.w3.org/Graphics/SVG/1.1/DTD/svg11.dtd">
<!-- Generated by graphviz version 12.2.1 (20250203.1708)
 -->
<!-- Title: G Pages: 1 -->
<svg width="716pt" height="46pt"
 viewBox="0.00 0.00 715.75 46.19" xmlns="http://www.w3.org/2000/svg" xmlns:xlink="http://www.w3.org/1999/xlink">
<g id="graph0" class="graph" transform="scale(1 1) rotate(0) translate(4 42.19)">
<title>G</title>
<polygon fill="white" stroke="none" points="-4,4 -4,-42.19 711.75,-42.19 711.75,4 -4,4"/>
<!-- manifest_gpg -->
<g id="node1" class="node">
<title>manifest_gpg</title>
<polygon fill="white" stroke="black" points="142,-38.19 0,-38.19 0,-1.69 142,-1.69 142,-38.19"/>
<text text-anchor="middle" x="71" y="-22.79" font-family="Jost" font-size="12.00">manifest.gpg</text>
<text text-anchor="middle" x="71" y="-8.54" font-family="Jost" font-size="12.00">(signed + encrypted)</text>
</g>
<!-- gpg -->
<g id="node2" class="node">
<title>gpg</title>
<polygon fill="#ff655d" stroke="black" points="270,-38.19 179,-38.19 179,-1.69 270,-1.69 270,-38.19"/>
<text text-anchor="middle" x="224.5" y="-22.79" font-family="Jost" font-size="12.00" fill="white">GPG decrypt</text>
<text text-anchor="middle" x="224.5" y="-8.54" font-family="Jost" font-size="12.00" fill="white">+ verify sig</text>
</g>
<!-- manifest_gpg&#45;&gt;gpg -->
<g id="edge1" class="edge">
<title>manifest_gpg&#45;&gt;gpg</title>
<path fill="none" stroke="#004d40" d="M142.43,-19.94C150.83,-19.94 159.32,-19.94 167.48,-19.94"/>
<polygon fill="#004d40" stroke="#004d40" points="167.25,-23.44 177.25,-19.94 167.25,-16.44 167.25,-23.44"/>
</g>
<!-- tsv -->
<g id="node3" class="node">
<title>tsv</title>
<polygon fill="white" stroke="black" points="481.75,-38.19 387,-38.19 387,-1.69 481.75,-1.69 481.75,-38.19"/>
<text text-anchor="middle" x="434.38" y="-22.79" font-family="Jost" font-size="12.00">Plaintext TSV</text>
<text text-anchor="middle" x="434.38" y="-8.54" font-family="Jost" font-size="12.00">(in memory)</text>
</g>
<!-- gpg&#45;&gt;tsv -->
<g id="edge2" class="edge">
<title>gpg&#45;&gt;tsv</title>
<path fill="none" stroke="#004d40" d="M270.22,-20.75C276.2,-20.83 282.25,-20.9 288,-20.94 324,-21.23 333,-21.22 369,-20.94 371.05,-20.93 373.13,-20.91 375.24,-20.89"/>
<polygon fill="#004d40" stroke="#004d40" points="375.14,-24.39 385.1,-20.77 375.06,-17.39 375.14,-24.39"/>
</g>
<!-- tsv&#45;&gt;gpg -->
<g id="edge5" class="edge">
<title>tsv&#45;&gt;gpg</title>
<path fill="none" stroke="#004d40" stroke-dasharray="5,2" d="M386.53,-6.49C380.67,-5.23 374.72,-4.16 369,-3.44 333.28,1.06 323.7,1.19 288,-3.44 285.83,-3.72 283.63,-4.06 281.41,-4.44"/>
<polygon fill="#004d40" stroke="#004d40" points="280.9,-0.97 271.77,-6.35 282.26,-7.84 280.9,-0.97"/>
<text text-anchor="middle" x="328.5" y="-6.49" font-family="Jost" font-size="11.00">sign + encrypt</text>
</g>
<!-- entries -->
<g id="node4" class="node">
<title>entries</title>
<polygon fill="white" stroke="black" points="707.75,-38.19 591.25,-38.19 591.25,-1.69 707.75,-1.69 707.75,-38.19"/>
<text text-anchor="middle" x="649.5" y="-22.79" font-family="Jost" font-size="12.00">seq[VaultEntry]</text>
<text text-anchor="middle" x="649.5" y="-8.54" font-family="Jost" font-size="12.00">id + path + hash</text>
</g>
<!-- tsv&#45;&gt;entries -->
<g id="edge3" class="edge">
<title>tsv&#45;&gt;entries</title>
<path fill="none" stroke="#004d40" d="M482.14,-20.75C488.07,-20.83 494.05,-20.9 499.75,-20.94 532.42,-21.2 540.58,-21.16 573.25,-20.94 575.32,-20.93 577.41,-20.91 579.53,-20.9"/>
<polygon fill="#004d40" stroke="#004d40" points="579.5,-24.4 589.47,-20.8 579.44,-17.4 579.5,-24.4"/>
</g>
<!-- entries&#45;&gt;tsv -->
<g id="edge4" class="edge">
<title>entries&#45;&gt;tsv</title>
<path fill="none" stroke="#004d40" stroke-dasharray="5,2" d="M590.78,-5.97C584.89,-4.94 578.97,-4.06 573.25,-3.44 540.77,0.08 532.16,0.64 499.75,-3.44 497.69,-3.7 495.61,-4.01 493.51,-4.35"/>
<polygon fill="#004d40" stroke="#004d40" points="492.88,-0.9 483.71,-6.21 494.19,-7.78 492.88,-0.9"/>
<text text-anchor="middle" x="536.5" y="-6.49" font-family="Jost" font-size="11.00">saveManifest</text>
</g>
</g>
</svg>
