<?xml version="1.0" encoding="UTF-8" standalone="no"?>
<!DOCTYPE svg PUBLIC "-//W3C//DTD SVG 1.1//EN"
 "http://www.w3.org/Graphics/SVG/1.1/DTD/svg11.dtd">
<!-- Generated by graphviz version 12.2.1 (20250203.1708)
 -->
<!-- Title: G Pages: 1 -->
<svg width="490pt" height="290pt"
 viewBox="0.00 0.00 490.15 290.00" xmlns="http://www.w3.org/2000/svg" xmlns:xlink="http://www.w3.org/1999/xlink">
<g id="graph0" class="graph" transform="scale(1 1) rotate(0) translate(4 286)">
<title>G</title>
<polygon fill="white" stroke="none" points="-4,4 -4,-286 486.15,-286 486.15,4 -4,4"/>
<!-- nimvault -->
<g id="node1" class="node">
<title>nimvault</title>
<polygon fill="#f1db4b" stroke="black" points="297,-282 203,-282 203,-278 199,-278 199,-274 203,-274 203,-253.5 199,-253.5 199,-249.5 203,-249.5 203,-245.5 297,-245.5 297,-282"/>
<polyline fill="none" stroke="black" points="203,-278 207,-278 207,-274 203,-274"/>
<polyline fill="none" stroke="black" points="203,-253.5 207,-253.5 207,-249.5 203,-249.5"/>
<text text-anchor="middle" x="250" y="-266.6" font-family="Jost" font-size="12.00">nimvault.nim</text>
<text text-anchor="middle" x="250" y="-252.35" font-family="Jost" font-size="12.00">(library root)</text>
</g>
<!-- cli -->
<g id="node2" class="node">
<title>cli</title>
<polygon fill="#ff655d" stroke="black" points="246.12,-196 131.88,-196 131.88,-192 127.88,-192 127.88,-188 131.88,-188 131.88,-167.5 127.88,-167.5 127.88,-163.5 131.88,-163.5 131.88,-159.5 246.12,-159.5 246.12,-196"/>
<polyline fill="none" stroke="black" points="131.88,-192 135.88,-192 135.88,-188 131.88,-188"/>
<polyline fill="none" stroke="black" points="131.88,-167.5 135.88,-167.5 135.88,-163.5 131.88,-163.5"/>
<text text-anchor="middle" x="189" y="-180.6" font-family="Jost" font-size="12.00" fill="white">cli.nim</text>
<text text-anchor="middle" x="189" y="-166.35" font-family="Jost" font-size="12.00" fill="white">(cligen dispatch)</text>
</g>
<!-- nimvault&#45;&gt;cli -->
<g id="edge4" class="edge">
<title>nimvault&#45;&gt;cli</title>
<path fill="none" stroke="#004d40" stroke-dasharray="5,2" d="M207.17,-245.11C200.33,-240.4 194.15,-234.59 190,-227.5 186.49,-221.51 185.13,-214.36 184.89,-207.4"/>
<polygon fill="#004d40" stroke="#004d40" points="188.38,-207.77 185.32,-197.63 181.39,-207.46 188.38,-207.77"/>
<text text-anchor="middle" x="244" y="-217.05" font-family="Jost" font-size="11.00">when isMainModule</text>
</g>
<!-- commands -->
<g id="node3" class="node">
<title>commands</title>
<polygon fill="white" stroke="black" points="422.38,-110 201.62,-110 201.62,-106 197.62,-106 197.62,-102 201.62,-102 201.62,-81.5 197.62,-81.5 197.62,-77.5 201.62,-77.5 201.62,-73.5 422.38,-73.5 422.38,-110"/>
<polyline fill="none" stroke="black" points="201.62,-106 205.62,-106 205.62,-102 201.62,-102"/>
<polyline fill="none" stroke="black" points="201.62,-81.5 205.62,-81.5 205.62,-77.5 201.62,-77.5"/>
<text text-anchor="middle" x="312" y="-94.6" font-family="Jost" font-size="12.00">commands.nim</text>
<text text-anchor="middle" x="312" y="-80.35" font-family="Jost" font-size="12.00">(seal/unseal/add/rm/mv/list/status)</text>
</g>
<!-- nimvault&#45;&gt;commands -->
<g id="edge1" class="edge">
<title>nimvault&#45;&gt;commands</title>
<path fill="none" stroke="#004d40" d="M282.03,-245.09C288.27,-240.19 294.09,-234.32 298,-227.5 316.73,-194.83 317.5,-150.31 315.46,-121.54"/>
<polygon fill="#004d40" stroke="#004d40" points="318.96,-121.42 314.59,-111.77 311.99,-122.04 318.96,-121.42"/>
<text text-anchor="middle" x="344.12" y="-174.05" font-family="Jost" font-size="11.00">re&#45;exports</text>
</g>
<!-- manifest -->
<g id="node4" class="node">
<title>manifest</title>
<polygon fill="white" stroke="black" points="481.5,-36.5 330.5,-36.5 330.5,-32.5 326.5,-32.5 326.5,-28.5 330.5,-28.5 330.5,-8 326.5,-8 326.5,-4 330.5,-4 330.5,0 481.5,0 481.5,-36.5"/>
<polyline fill="none" stroke="black" points="330.5,-32.5 334.5,-32.5 334.5,-28.5 330.5,-28.5"/>
<polyline fill="none" stroke="black" points="330.5,-8 334.5,-8 334.5,-4 330.5,-4"/>
<text text-anchor="middle" x="406" y="-21.1" font-family="Jost" font-size="12.00">manifest.nim</text>
<text text-anchor="middle" x="406" y="-6.85" font-family="Jost" font-size="12.00">(VaultEntry, load/save)</text>
</g>
<!-- nimvault&#45;&gt;manifest -->
<g id="edge2" class="edge">
<title>nimvault&#45;&gt;manifest</title>
<path fill="none" stroke="#004d40" d="M297.17,-245.09C322.85,-233.83 353.97,-217.32 377,-196 410.11,-165.33 418.51,-153.37 431,-110 435.49,-94.41 434.48,-89.35 431,-73.5 429.02,-64.48 425.4,-55.18 421.51,-46.88"/>
<polygon fill="#004d40" stroke="#004d40" points="424.67,-45.36 417.05,-38 418.41,-48.51 424.67,-45.36"/>
<text text-anchor="middle" x="453.65" y="-131.05" font-family="Jost" font-size="11.00">re&#45;exports</text>
</g>
<!-- gpg_mod -->
<g id="node5" class="node">
<title>gpg_mod</title>
<polygon fill="white" stroke="black" points="220,-36.5 0,-36.5 0,-32.5 -4,-32.5 -4,-28.5 0,-28.5 0,-8 -4,-8 -4,-4 0,-4 0,0 220,0 220,-36.5"/>
<polyline fill="none" stroke="black" points="0,-32.5 4,-32.5 4,-28.5 0,-28.5"/>
<polyline fill="none" stroke="black" points="0,-8 4,-8 4,-4 0,-4"/>
<text text-anchor="middle" x="110" y="-21.1" font-family="Jost" font-size="12.00">gpg.nim</text>
<text text-anchor="middle" x="110" y="-6.85" font-family="Jost" font-size="12.00">(encrypt/decrypt, recipient config)</text>
</g>
<!-- nimvault&#45;&gt;gpg_mod -->
<g id="edge3" class="edge">
<title>nimvault&#45;&gt;gpg_mod</title>
<path fill="none" stroke="#004d40" d="M202.62,-247.95C157.32,-230.76 92.68,-197.36 70,-141.5 57,-109.49 74.32,-71.53 90.06,-46.5"/>
<polygon fill="#004d40" stroke="#004d40" points="92.95,-48.47 95.55,-38.2 87.12,-44.6 92.95,-48.47"/>
<text text-anchor="middle" x="98.5" y="-131.05" font-family="Jost" font-size="11.00">re&#45;exports</text>
</g>
<!-- cli&#45;&gt;commands -->
<g id="edge5" class="edge">
<title>cli&#45;&gt;commands</title>
<path fill="none" stroke="#004d40" d="M204.37,-159.04C213.64,-149.08 226.08,-136.89 238.75,-128 245.18,-123.49 252.28,-119.27 259.46,-115.43"/>
<polygon fill="#004d40" stroke="#004d40" points="260.56,-118.79 267.88,-111.13 257.38,-112.56 260.56,-118.79"/>
<text text-anchor="middle" x="268.38" y="-131.05" font-family="Jost" font-size="11.00">dispatches</text>
</g>
<!-- cli&#45;&gt;gpg_mod -->
<g id="edge6" class="edge">
<title>cli&#45;&gt;gpg_mod</title>
<path fill="none" stroke="#004d40" d="M163.06,-159.17C147.65,-147.22 129.28,-129.99 119.5,-110 110.14,-90.86 107.99,-66.77 108.06,-48.23"/>
<polygon fill="#004d40" stroke="#004d40" points="111.55,-48.55 108.33,-38.46 104.56,-48.36 111.55,-48.55"/>
<text text-anchor="middle" x="156.25" y="-88.05" font-family="Jost" font-size="11.00">initGpgConfig</text>
</g>
<!-- commands&#45;&gt;manifest -->
<g id="edge7" class="edge">
<title>commands&#45;&gt;manifest</title>
<path fill="none" stroke="#004d40" d="M335.24,-73.08C346.87,-64.22 361.15,-53.37 373.82,-43.73"/>
<polygon fill="#004d40" stroke="#004d40" points="375.66,-46.72 381.5,-37.88 371.42,-41.15 375.66,-46.72"/>
</g>
<!-- commands&#45;&gt;gpg_mod -->
<g id="edge8" class="edge">
<title>commands&#45;&gt;gpg_mod</title>
<path fill="none" stroke="#004d40" d="M262.07,-73.08C234.39,-63.28 199.77,-51.02 170.55,-40.68"/>
<polygon fill="#004d40" stroke="#004d40" points="172.08,-37.51 161.49,-37.47 169.74,-44.11 172.08,-37.51"/>
</g>
</g>
</svg>
