<?xml version="1.0" encoding="UTF-8" standalone="no"?>
<!DOCTYPE svg PUBLIC "-//W3C//DTD SVG 1.1//EN"
 "http://www.w3.org/Graphics/SVG/1.1/DTD/svg11.dtd">
<!-- Generated by graphviz version 12.2.1 (20250203.1708)
 -->
<!-- Title: G Pages: 1 -->
<svg width="503pt" height="485pt"
 viewBox="0.00 0.00 503.00 484.50" xmlns="http://www.w3.org/2000/svg" xmlns:xlink="http://www.w3.org/1999/xlink">
<g id="graph0" class="graph" transform="scale(1 1) rotate(0) translate(4 480.5)">
<title>G</title>
<polygon fill="white" stroke="none" points="-4,4 -4,-480.5 499,-480.5 499,4 -4,4"/>
<!-- start -->
<g id="node1" class="node">
<title>start</title>
<ellipse fill="white" stroke="black" cx="324.5" cy="-458.5" rx="77.91" ry="18"/>
<text text-anchor="middle" x="324.5" y="-454.23" font-family="Jost" font-size="12.00">resolveRecipient()</text>
</g>
<!-- cli -->
<g id="node2" class="node">
<title>cli</title>
<polygon fill="#f1db4b" stroke="black" points="324.5,-403.5 221.5,-367 324.5,-330.5 427.5,-367 324.5,-403.5"/>
<text text-anchor="middle" x="324.5" y="-369.85" font-family="Jost" font-size="12.00">&#45;&#45;recipient KEY</text>
<text text-anchor="middle" x="324.5" y="-355.6" font-family="Jost" font-size="12.00">provided?</text>
</g>
<!-- start&#45;&gt;cli -->
<g id="edge1" class="edge">
<title>start&#45;&gt;cli</title>
<path fill="none" stroke="#004d40" d="M324.5,-440.24C324.5,-432.96 324.5,-424.08 324.5,-415.08"/>
<polygon fill="#004d40" stroke="#004d40" points="328,-415.24 324.5,-405.24 321,-415.24 328,-415.24"/>
</g>
<!-- env -->
<g id="node3" class="node">
<title>env</title>
<polygon fill="#f1db4b" stroke="black" points="202.5,-281 25.25,-244.5 202.5,-208 379.75,-244.5 202.5,-281"/>
<text text-anchor="middle" x="202.5" y="-247.35" font-family="Jost" font-size="12.00">NIMVAULT_GPG_RECIPIENT</text>
<text text-anchor="middle" x="202.5" y="-233.1" font-family="Jost" font-size="12.00">set?</text>
</g>
<!-- cli&#45;&gt;env -->
<g id="edge3" class="edge">
<title>cli&#45;&gt;env</title>
<path fill="none" stroke="#004d40" d="M297.73,-339.56C280.99,-323.02 259.16,-301.46 240.63,-283.16"/>
<polygon fill="#004d40" stroke="#004d40" points="243.29,-280.87 233.72,-276.33 238.37,-285.85 243.29,-280.87"/>
<text text-anchor="middle" x="273.91" y="-302.05" font-family="Jost" font-size="11.00">no</text>
</g>
<!-- use_cli -->
<g id="node5" class="node">
<title>use_cli</title>
<polygon fill="white" stroke="black" points="495,-262.5 398,-262.5 398,-226.5 495,-226.5 495,-262.5"/>
<text text-anchor="middle" x="446.5" y="-240.22" font-family="Jost" font-size="12.00">Use CLI value</text>
</g>
<!-- cli&#45;&gt;use_cli -->
<g id="edge2" class="edge">
<title>cli&#45;&gt;use_cli</title>
<path fill="none" stroke="#004d40" d="M351.27,-339.56C371.99,-319.1 400.49,-290.95 420.9,-270.79"/>
<polygon fill="#004d40" stroke="#004d40" points="423.1,-273.53 427.76,-264.01 418.18,-268.55 423.1,-273.53"/>
<text text-anchor="middle" x="398.91" y="-302.05" font-family="Jost" font-size="11.00">yes</text>
</g>
<!-- conf -->
<g id="node4" class="node">
<title>conf</title>
<polygon fill="#f1db4b" stroke="black" points="119.5,-158.5 21,-122 119.5,-85.5 218,-122 119.5,-158.5"/>
<text text-anchor="middle" x="119.5" y="-124.85" font-family="Jost" font-size="12.00">.vault/config</text>
<text text-anchor="middle" x="119.5" y="-110.6" font-family="Jost" font-size="12.00">has recipient?</text>
</g>
<!-- env&#45;&gt;conf -->
<g id="edge5" class="edge">
<title>env&#45;&gt;conf</title>
<path fill="none" stroke="#004d40" d="M180.91,-212.15C170.07,-196.42 156.85,-177.23 145.46,-160.69"/>
<polygon fill="#004d40" stroke="#004d40" points="148.41,-158.8 139.86,-152.55 142.65,-162.77 148.41,-158.8"/>
<text text-anchor="middle" x="170.24" y="-179.55" font-family="Jost" font-size="11.00">no</text>
</g>
<!-- use_env -->
<g id="node6" class="node">
<title>use_env</title>
<polygon fill="white" stroke="black" points="336.5,-140 236.5,-140 236.5,-104 336.5,-104 336.5,-140"/>
<text text-anchor="middle" x="286.5" y="-117.72" font-family="Jost" font-size="12.00">Use env value</text>
</g>
<!-- env&#45;&gt;use_env -->
<g id="edge4" class="edge">
<title>env&#45;&gt;use_env</title>
<path fill="none" stroke="#004d40" d="M224.35,-212.15C237.87,-192.77 255.03,-168.14 267.89,-149.69"/>
<polygon fill="#004d40" stroke="#004d40" points="270.65,-151.85 273.5,-141.65 264.91,-147.85 270.65,-151.85"/>
<text text-anchor="middle" x="256.77" y="-179.55" font-family="Jost" font-size="11.00">yes</text>
</g>
<!-- use_conf -->
<g id="node7" class="node">
<title>use_conf</title>
<polygon fill="white" stroke="black" points="115,-36 0,-36 0,0 115,0 115,-36"/>
<text text-anchor="middle" x="57.5" y="-13.72" font-family="Jost" font-size="12.00">Use config value</text>
</g>
<!-- conf&#45;&gt;use_conf -->
<g id="edge6" class="edge">
<title>conf&#45;&gt;use_conf</title>
<path fill="none" stroke="#004d40" d="M101.73,-91.77C92.98,-77.37 82.49,-60.12 73.93,-46.03"/>
<polygon fill="#004d40" stroke="#004d40" points="77.05,-44.43 68.87,-37.7 71.07,-48.07 77.05,-44.43"/>
<text text-anchor="middle" x="96.39" y="-57.05" font-family="Jost" font-size="11.00">yes</text>
</g>
<!-- fail -->
<g id="node8" class="node">
<title>fail</title>
<polygon fill="#ff655d" stroke="black" points="232.12,-36 132.88,-36 132.88,0 232.12,0 232.12,-36"/>
<text text-anchor="middle" x="182.5" y="-13.72" font-family="Jost" font-size="12.00" fill="white">Exit with error</text>
</g>
<!-- conf&#45;&gt;fail -->
<g id="edge7" class="edge">
<title>conf&#45;&gt;fail</title>
<path fill="none" stroke="#004d40" d="M137.55,-91.77C146.45,-77.37 157.1,-60.12 165.81,-46.03"/>
<polygon fill="#004d40" stroke="#004d40" points="168.67,-48.05 170.95,-37.7 162.72,-44.37 168.67,-48.05"/>
<text text-anchor="middle" x="167.07" y="-57.05" font-family="Jost" font-size="11.00">no</text>
</g>
</g>
</svg>
